<svg width="15" height="15" viewBox="0 0 15 15" fill="none" xmlns="http://www.w3.org/2000/svg">
<g clip-path="url(#clip0_1_37)">
<path d="M13.8366 5.73896L11.872 5.0666C11.3071 4.87324 10.8893 4.45371 10.7546 3.94453L10.2861 2.17353C9.94687 0.891207 8.04286 0.499801 7.06406 1.51084L5.7123 2.90742C5.32382 3.30908 4.72968 3.5206 4.12441 3.47314L2.01855 3.30849C0.493645 3.18925 -0.52823 4.62334 0.289153 5.73515L1.41825 7.27089C1.74286 7.7124 1.79384 8.26289 1.55419 8.74277L0.721282 10.4121C0.118059 11.6206 1.39042 12.8985 2.87431 12.5745L4.92392 12.1269C5.51308 11.9982 6.13827 12.1269 6.59589 12.4705L8.1873 13.6667C9.33925 14.5327 11.1475 13.8885 11.2474 12.5763L11.3851 10.764C11.4246 10.2428 11.7601 9.77197 12.2824 9.50449L14.0988 8.57461C15.4137 7.90195 15.2587 6.22588 13.8366 5.73896Z" fill="#FFEAEA"/>
</g>
<defs>
<clipPath id="clip0_1_37">
<rect width="15" height="15" fill="white"/>
</clipPath>
</defs>
</svg>
