<svg width="40" height="6" viewBox="0 0 40 6" fill="none" xmlns="http://www.w3.org/2000/svg">
<g clip-path="url(#clip0_1_234)">
<path d="M2.66375 0.511593L1.99293 1.87172L0.492066 2.09053C0.222918 2.12957 0.115053 2.46138 0.310237 2.65143L1.39608 3.70953L1.13926 5.20423C1.09303 5.4744 1.37759 5.67678 1.61592 5.55042L2.95858 4.84468L4.30124 5.55042C4.53957 5.67575 4.82412 5.4744 4.7779 5.20423L4.52108 3.70953L5.60692 2.65143C5.8021 2.46138 5.69423 2.12957 5.42509 2.09053L3.92422 1.87172L3.25341 0.511593C3.13321 0.269154 2.78496 0.266072 2.66375 0.511593Z" fill="#9A9A9A"/>
</g>
<g clip-path="url(#clip1_1_234)">
<path d="M11.1845 0.511593L10.5136 1.87172L9.01278 2.09053C8.74363 2.12957 8.63577 2.46138 8.83095 2.65143L9.91679 3.70953L9.65997 5.20423C9.61374 5.4744 9.8983 5.67678 10.1366 5.55042L11.4793 4.84468L12.822 5.55042C13.0603 5.67575 13.3448 5.4744 13.2986 5.20423L13.0418 3.70953L14.1276 2.65143C14.3228 2.46138 14.2149 2.12957 13.9458 2.09053L12.4449 1.87172L11.7741 0.511593C11.6539 0.269154 11.3057 0.266072 11.1845 0.511593Z" fill="#9A9A9A"/>
</g>
<g clip-path="url(#clip2_1_234)">
<path d="M19.7051 0.511593L19.0343 1.87172L17.5335 2.09053C17.2643 2.12957 17.1565 2.46138 17.3516 2.65143L18.4375 3.70953L18.1807 5.20423C18.1344 5.4744 18.419 5.67678 18.6573 5.55042L20 4.84468L21.3426 5.55042C21.581 5.67575 21.8655 5.4744 21.8193 5.20423L21.5625 3.70953L22.6483 2.65143C22.8435 2.46138 22.7356 2.12957 22.4665 2.09053L20.9656 1.87172L20.2948 0.511593C20.1746 0.269154 19.8264 0.266072 19.7051 0.511593Z" fill="#9A9A9A"/>
</g>
<g clip-path="url(#clip3_1_234)">
<path d="M28.2259 0.511593L27.5551 1.87172L26.0542 2.09053C25.785 2.12957 25.6772 2.46138 25.8724 2.65143L26.9582 3.70953L26.7014 5.20423C26.6552 5.4744 26.9397 5.67678 27.178 5.55042L28.5207 4.84468L29.8634 5.55042C30.1017 5.67575 30.3863 5.4744 30.34 5.20423L30.0832 3.70953L31.169 2.65143C31.3642 2.46138 31.2564 2.12957 30.9872 2.09053L29.4864 1.87172L28.8155 0.511593C28.6953 0.269154 28.3471 0.266072 28.2259 0.511593Z" fill="#9A9A9A"/>
</g>
<g clip-path="url(#clip4_1_234)">
<path d="M36.7466 0.511593L36.0758 1.87172L34.5749 2.09053C34.3058 2.12957 34.1979 2.46138 34.3931 2.65143L35.4789 3.70953L35.2221 5.20423C35.1759 5.4744 35.4604 5.67678 35.6988 5.55042L37.0414 4.84468L38.3841 5.55042C38.6224 5.67575 38.907 5.4744 38.8607 5.20423L38.6039 3.70953L39.6898 2.65143C39.8849 2.46138 39.7771 2.12957 39.5079 2.09053L38.0071 1.87172L37.3363 0.511593C37.2161 0.269154 36.8678 0.266072 36.7466 0.511593Z" fill="#9A9A9A"/>
</g>
<defs>
<clipPath id="clip0_1_234">
<rect width="5.87002" height="5.87002" fill="white" transform="scale(1.00803)"/>
</clipPath>
<clipPath id="clip1_1_234">
<rect width="5.87002" height="5.87002" fill="white" transform="translate(8.52071) scale(1.00803)"/>
</clipPath>
<clipPath id="clip2_1_234">
<rect width="5.87002" height="5.87002" fill="white" transform="translate(17.0414) scale(1.00803)"/>
</clipPath>
<clipPath id="clip3_1_234">
<rect width="5.87002" height="5.87002" fill="white" transform="translate(25.5621) scale(1.00803)"/>
</clipPath>
<clipPath id="clip4_1_234">
<rect width="5.87002" height="5.87002" fill="white" transform="translate(34.0828) scale(1.00803)"/>
</clipPath>
</defs>
</svg>
