<svg width="20" height="21" viewBox="0 0 20 21" fill="none" xmlns="http://www.w3.org/2000/svg">
<path d="M19.728 17.2942L15.8332 13.3994C15.6574 13.2236 15.4191 13.126 15.1691 13.126H14.5323C15.6105 11.747 16.2512 10.0125 16.2512 8.1256C16.2512 3.63699 12.6142 0 8.1256 0C3.63699 0 0 3.63699 0 8.1256C0 12.6142 3.63699 16.2512 8.1256 16.2512C10.0125 16.2512 11.747 15.6105 13.126 14.5323V15.1691C13.126 15.4191 13.2236 15.6574 13.3994 15.8332L17.2942 19.728C17.6614 20.0952 18.2552 20.0952 18.6186 19.728L19.7241 18.6225C20.0913 18.2552 20.0913 17.6614 19.728 17.2942ZM8.1256 13.126C5.36367 13.126 3.12523 10.8914 3.12523 8.1256C3.12523 5.36367 5.35977 3.12523 8.1256 3.12523C10.8875 3.12523 13.126 5.35977 13.126 8.1256C13.126 10.8875 10.8914 13.126 8.1256 13.126Z" fill="#D7D5D5"/>
</svg>
