<svg width="25" height="25" viewBox="0 0 25 25" fill="none" xmlns="http://www.w3.org/2000/svg">
<path d="M1.5625 21.875C1.5625 22.7393 2.26074 23.4375 3.125 23.4375H10.9375V15.625H1.5625V21.875ZM14.0625 23.4375H21.875C22.7393 23.4375 23.4375 22.7393 23.4375 21.875V15.625H14.0625V23.4375ZM23.4375 7.8125H21.3818C21.6846 7.22168 21.875 6.56738 21.875 5.85938C21.875 3.49121 19.9463 1.5625 17.5781 1.5625C15.5469 1.5625 14.2334 2.60254 12.5488 4.89746C10.8643 2.60254 9.55078 1.5625 7.51953 1.5625C5.15137 1.5625 3.22266 3.49121 3.22266 5.85938C3.22266 6.56738 3.4082 7.22168 3.71582 7.8125H1.5625C0.698242 7.8125 0 8.51074 0 9.375V13.2812C0 13.7109 0.351562 14.0625 0.78125 14.0625H24.2188C24.6484 14.0625 25 13.7109 25 13.2812V9.375C25 8.51074 24.3018 7.8125 23.4375 7.8125ZM7.51465 7.8125C6.43555 7.8125 5.56152 6.93848 5.56152 5.85938C5.56152 4.78027 6.43555 3.90625 7.51465 3.90625C8.48633 3.90625 9.2041 4.06738 11.7188 7.8125H7.51465ZM17.5781 7.8125H13.374C15.8838 4.07715 16.582 3.90625 17.5781 3.90625C18.6572 3.90625 19.5312 4.78027 19.5312 5.85938C19.5312 6.93848 18.6572 7.8125 17.5781 7.8125Z" fill="white"/>
</svg>
