<svg width="7" height="7" viewBox="0 0 7 7" fill="none" xmlns="http://www.w3.org/2000/svg">
<path d="M5.52344 1.3125C5.61404 1.3125 5.6875 1.23904 5.6875 1.14844V0.601562C5.6875 0.510959 5.61404 0.4375 5.52344 0.4375H1.47656C1.38596 0.4375 1.3125 0.510959 1.3125 0.601562V1.21335C1.3125 1.30396 1.38596 1.37741 1.47656 1.37741H2.6425C3.01585 1.37741 3.30232 1.51356 3.47607 1.75H1.47656C1.38596 1.75 1.3125 1.82346 1.3125 1.91406V2.46094C1.3125 2.55154 1.38596 2.625 1.47656 2.625H3.64707C3.56207 3.11836 3.19643 3.42661 2.625 3.42661H1.47656C1.38596 3.42661 1.3125 3.50007 1.3125 3.59067V4.31545C1.3125 4.36123 1.33164 4.40494 1.36529 4.436L3.62186 6.519C3.65216 6.54697 3.69189 6.5625 3.73313 6.5625H4.86191C5.01126 6.5625 5.08293 6.37919 4.97319 6.27788L2.91035 4.37371C3.95623 4.34172 4.70333 3.64371 4.80141 2.625H5.52344C5.61404 2.625 5.6875 2.55154 5.6875 2.46094V1.91406C5.6875 1.82346 5.61404 1.75 5.52344 1.75H4.72104C4.67337 1.59221 4.60783 1.44586 4.52618 1.3125H5.52344Z" fill="black"/>
</svg>
