<svg width="25" height="25" viewBox="0 0 25 25" fill="none" xmlns="http://www.w3.org/2000/svg">
<g clip-path="url(#clip0_1_284)">
<path d="M12.1688 7.8238L4.16666 14.4145V21.5278C4.16666 21.712 4.23983 21.8886 4.37006 22.0188C4.50029 22.1491 4.67693 22.2222 4.8611 22.2222L9.72482 22.2097C9.9084 22.2087 10.0841 22.1352 10.2136 22.005C10.3431 21.8749 10.4158 21.6988 10.4158 21.5152V17.3611C10.4158 17.177 10.489 17.0003 10.6192 16.8701C10.7494 16.7399 10.9261 16.6667 11.1102 16.6667H13.888C14.0722 16.6667 14.2488 16.7399 14.3791 16.8701C14.5093 17.0003 14.5825 17.177 14.5825 17.3611V21.5122C14.5822 21.6036 14.5999 21.6941 14.6347 21.7786C14.6695 21.8631 14.7206 21.9399 14.7851 22.0046C14.8496 22.0693 14.9263 22.1207 15.0106 22.1557C15.095 22.1908 15.1855 22.2088 15.2769 22.2088L20.1389 22.2222C20.3231 22.2222 20.4997 22.1491 20.6299 22.0188C20.7602 21.8886 20.8333 21.712 20.8333 21.5278V14.4097L12.8329 7.8238C12.7388 7.74799 12.6217 7.70665 12.5009 7.70665C12.3801 7.70665 12.2629 7.74799 12.1688 7.8238ZM24.809 12.3034L21.1805 9.31252V3.3008C21.1805 3.16267 21.1257 3.03019 21.028 2.93252C20.9303 2.83484 20.7978 2.77997 20.6597 2.77997H18.2292C18.091 2.77997 17.9585 2.83484 17.8609 2.93252C17.7632 3.03019 17.7083 3.16267 17.7083 3.3008V6.45228L13.8225 3.25523C13.4496 2.94836 12.9816 2.78058 12.4987 2.78058C12.0158 2.78058 11.5478 2.94836 11.1749 3.25523L0.188362 12.3034C0.135623 12.347 0.0919888 12.4006 0.0599541 12.461C0.0279193 12.5215 0.00811156 12.5877 0.00166252 12.6558C-0.00478653 12.7239 0.00224954 12.7926 0.0223687 12.858C0.0424879 12.9234 0.0752958 12.9842 0.118918 13.0369L1.22569 14.3824C1.26919 14.4353 1.3227 14.4791 1.38315 14.5113C1.44361 14.5435 1.50981 14.5634 1.57799 14.57C1.64616 14.5766 1.71496 14.5696 1.78045 14.5496C1.84593 14.5295 1.90682 14.4968 1.95963 14.4531L12.1688 6.04429C12.2629 5.96848 12.3801 5.92713 12.5009 5.92713C12.6217 5.92713 12.7388 5.96848 12.8329 6.04429L23.0425 14.4531C23.0952 14.4968 23.156 14.5296 23.2214 14.5497C23.2868 14.5698 23.3556 14.5768 23.4237 14.5704C23.4918 14.564 23.558 14.5441 23.6184 14.5121C23.6789 14.4801 23.7324 14.4364 23.776 14.3837L24.8828 13.0382C24.9264 12.9852 24.9591 12.9241 24.9789 12.8584C24.9988 12.7927 25.0055 12.7238 24.9987 12.6555C24.9918 12.5872 24.9715 12.5209 24.939 12.4605C24.9064 12.4001 24.8623 12.3467 24.809 12.3034Z" fill="white"/>
</g>
<defs>
<clipPath id="clip0_1_284">
<rect width="25" height="25" fill="white"/>
</clipPath>
</defs>
</svg>
