<svg width="61" height="9" viewBox="0 0 61 9" fill="none" xmlns="http://www.w3.org/2000/svg">
<g clip-path="url(#clip0_1_211)">
<path d="M4.05157 0.778113L3.03125 2.84687L0.748433 3.17968C0.339056 3.23906 0.174993 3.74375 0.471869 4.03281L2.12344 5.64219L1.73281 7.91564C1.6625 8.32657 2.09531 8.63439 2.45781 8.4422L4.50001 7.36876L6.5422 8.4422C6.9047 8.63282 7.33752 8.32657 7.2672 7.91564L6.87658 5.64219L8.52814 4.03281C8.82502 3.74375 8.66096 3.23906 8.25158 3.17968L5.96876 2.84687L4.94845 0.778113C4.76563 0.409362 4.23594 0.404675 4.05157 0.778113Z" fill="#9A9A9A"/>
</g>
<g clip-path="url(#clip1_1_211)">
<path d="M17.0116 0.778113L15.9913 2.84687L13.7085 3.17968C13.2991 3.23906 13.135 3.74375 13.4319 4.03281L15.0835 5.64219L14.6929 7.91564C14.6225 8.32657 15.0554 8.63439 15.4179 8.4422L17.4601 7.36876L19.5022 8.4422C19.8647 8.63282 20.2976 8.32657 20.2272 7.91564L19.8366 5.64219L21.4882 4.03281C21.7851 3.74375 21.621 3.23906 21.2116 3.17968L18.9288 2.84687L17.9085 0.778113C17.7257 0.409362 17.196 0.404675 17.0116 0.778113Z" fill="#9A9A9A"/>
</g>
<g clip-path="url(#clip2_1_211)">
<path d="M29.9717 0.778113L28.9513 2.84687L26.6685 3.17968C26.2591 3.23906 26.0951 3.74375 26.392 4.03281L28.0435 5.64219L27.6529 7.91564C27.5826 8.32657 28.0154 8.63439 28.3779 8.4422L30.4201 7.36876L32.4623 8.4422C32.8248 8.63282 33.2576 8.32657 33.1873 7.91564L32.7967 5.64219L34.4482 4.03281C34.7451 3.74375 34.581 3.23906 34.1717 3.17968L31.8889 2.84687L30.8685 0.778113C30.6857 0.409362 30.156 0.404675 29.9717 0.778113Z" fill="#9A9A9A"/>
</g>
<g clip-path="url(#clip3_1_211)">
<path d="M42.9317 0.778113L41.9114 2.84687L39.6286 3.17968C39.2192 3.23906 39.0551 3.74375 39.352 4.03281L41.0036 5.64219L40.6129 7.91564C40.5426 8.32657 40.9754 8.63439 41.3379 8.4422L43.3801 7.36876L45.4223 8.4422C45.7848 8.63282 46.2176 8.32657 46.1473 7.91564L45.7567 5.64219L47.4083 4.03281C47.7051 3.74375 47.5411 3.23906 47.1317 3.17968L44.8489 2.84687L43.8286 0.778113C43.6458 0.409362 43.1161 0.404675 42.9317 0.778113Z" fill="#9A9A9A"/>
</g>
<g clip-path="url(#clip4_1_211)">
<path d="M55.8917 0.778113L54.8714 2.84687L52.5886 3.17968C52.1792 3.23906 52.0152 3.74375 52.312 4.03281L53.9636 5.64219L53.573 7.91564C53.5027 8.32657 53.9355 8.63439 54.298 8.4422L56.3402 7.36876L58.3824 8.4422C58.7449 8.63282 59.1777 8.32657 59.1074 7.91564L58.7168 5.64219L60.3683 4.03281C60.6652 3.74375 60.5011 3.23906 60.0918 3.17968L57.8089 2.84687L56.7886 0.778113C56.6058 0.409362 56.0761 0.404675 55.8917 0.778113Z" fill="#9A9A9A"/>
</g>
<defs>
<clipPath id="clip0_1_211">
<rect width="8.97854" height="8.97854" fill="white" transform="scale(1.00239)"/>
</clipPath>
<clipPath id="clip1_1_211">
<rect width="8.97854" height="8.97854" fill="white" transform="translate(12.96) scale(1.00239)"/>
</clipPath>
<clipPath id="clip2_1_211">
<rect width="8.97854" height="8.97854" fill="white" transform="translate(25.9201) scale(1.00239)"/>
</clipPath>
<clipPath id="clip3_1_211">
<rect width="8.97854" height="8.97854" fill="white" transform="translate(38.8801) scale(1.00239)"/>
</clipPath>
<clipPath id="clip4_1_211">
<rect width="8.97854" height="8.97854" fill="white" transform="translate(51.8402) scale(1.00239)"/>
</clipPath>
</defs>
</svg>
